
<svg width="32" height="32" viewBox="0 0 32 32" fill="none" xmlns="http://www.w3.org/2000/svg">
  <rect width="32" height="32" rx="8" fill="#9b87f5"/>
  <path d="M22 10.5C22 11.8807 20.8807 13 19.5 13C18.1193 13 17 11.8807 17 10.5C17 9.11929 18.1193 8 19.5 8C20.8807 8 22 9.11929 22 10.5Z" fill="white"/>
  <path d="M8 21.5C8 22.8807 9.11929 24 10.5 24C11.8807 24 13 22.8807 13 21.5C13 20.1193 11.8807 19 10.5 19C9.11929 19 8 20.1193 8 21.5Z" fill="white"/>
  <path d="M19.5 13C19.5 13 17 16 15 18C13 20 10.5 19 10.5 19" stroke="white" stroke-width="2" stroke-linecap="round"/>
  <path d="M16 15L14 13" stroke="white" stroke-width="2" stroke-linecap="round"/>
</svg>
